<svg width="11" height="9" viewBox="0 0 11 9" fill="none" xmlns="http://www.w3.org/2000/svg">
<path d="M10.3266 4.90915C10.4367 4.80368 10.5 4.65603 10.5 4.50134C10.5 4.34665 10.4367 4.20134 10.3266 4.09353L6.20156 0.156028C5.97656 -0.0595974 5.62031 -0.0502223 5.40703 0.174778C5.19375 0.399778 5.20078 0.756028 5.42578 0.969309L8.53359 3.93884H0.5625C0.250781 3.93884 0 4.18962 0 4.50134C0 4.81306 0.250781 5.06384 0.5625 5.06384H8.53359L5.42344 8.03103C5.19844 8.24665 5.19141 8.60056 5.40469 8.82556C5.61797 9.05056 5.97422 9.05759 6.19922 8.84431L10.3242 4.90681L10.3266 4.90915Z" fill="#1E1918"/>
</svg>
