<svg width="24" height="24" viewBox="0 0 24 24" fill="none" xmlns="http://www.w3.org/2000/svg">
<g clip-path="url(#clip0_3_1713)">
<path d="M12 21.75C6.61406 21.75 2.25 17.3859 2.25 12C2.25 6.61406 6.61406 2.25 12 2.25C12.1641 2.25 12.3234 2.25469 12.4828 2.26406L10.8984 3.45C10.6453 3.6375 10.5 3.9375 10.5 4.25156V4.67813C10.5 4.99688 10.7578 5.25469 11.0766 5.25469C11.1891 5.25469 11.3016 5.22188 11.3953 5.15625L13.3547 3.84844C13.4484 3.7875 13.5609 3.75 13.6734 3.75H13.7203C14.0109 3.75 14.25 3.98906 14.25 4.27969C14.25 4.42031 14.1938 4.55625 14.0953 4.65469L13.1625 5.5875C12.8906 5.85938 12.5578 6.06563 12.1922 6.1875L10.95 6.6C10.6781 6.68906 10.5 6.94219 10.5 7.22812C10.5 7.40156 10.4297 7.57031 10.3078 7.69687L9.46875 8.53594C9.16875 8.83594 9.00469 9.23906 9.00469 9.66094V9.8625C9.00469 10.6312 9.64219 11.2547 10.4062 11.2547C10.9219 11.2547 11.4 10.9641 11.6297 10.5047L11.8172 10.125C11.9297 9.9 12.1641 9.75469 12.4172 9.75469C12.6281 9.75469 12.825 9.85313 12.9516 10.0219L13.7156 11.0391C13.8141 11.175 13.9734 11.25 14.1422 11.25C14.5359 11.25 14.7937 10.8328 14.6156 10.4813L14.5641 10.3734C14.4 10.0453 14.5641 9.64688 14.9156 9.52969L15.9094 9.19687C16.2656 9.07969 16.5047 8.74688 16.5047 8.37188C16.5047 7.88906 16.8938 7.5 17.3766 7.5H18.75C19.1625 7.5 19.5 7.8375 19.5 8.25C19.5 8.6625 19.1625 9 18.75 9H17.7797C17.4422 9 17.1141 9.13594 16.875 9.375L16.6547 9.59531C16.5562 9.69375 16.5 9.82969 16.5 9.97031C16.5 10.2609 16.7391 10.5 17.0297 10.5H17.5594C17.8406 10.5 18.1125 10.6125 18.3094 10.8094L18.6141 11.1141C18.6984 11.1984 18.7453 11.3156 18.7453 11.4328C18.7453 11.55 18.6984 11.6672 18.6141 11.7516L18.2625 12.1031C18.0938 12.2813 18 12.5109 18 12.75C18 12.9891 18.0938 13.2188 18.2672 13.3922L19.125 14.25C19.6031 14.7281 20.2547 15 20.9344 15H21.2812C21.0891 15.5906 20.8453 16.1578 20.55 16.6922C20.3766 16.5703 20.1656 16.5 19.9406 16.5C19.6594 16.5 19.3875 16.3875 19.1906 16.1906L18.5625 15.5625C18.2016 15.2016 17.7188 15 17.2078 15C16.7531 15 16.3078 14.8359 15.9609 14.5406L14.7188 13.4719C14.175 13.0078 13.4812 12.75 12.7641 12.75H11.7844C11.1937 12.75 10.6125 12.9234 10.1203 13.2516L8.83594 14.1094C8.00156 14.6672 7.5 15.6047 7.5 16.6078V16.7578C7.5 17.5547 7.81406 18.3187 8.37656 18.8812L9.12656 19.6312C9.525 20.0297 10.0641 20.2547 10.6266 20.2547H11.625C12.2484 20.2547 12.75 20.7563 12.75 21.3797C12.75 21.4969 12.7688 21.6141 12.8016 21.7219C12.5391 21.7453 12.2672 21.7547 12 21.7547V21.75ZM12 24C15.1826 24 18.2348 22.7357 20.4853 20.4853C22.7357 18.2348 24 15.1826 24 12C24 8.8174 22.7357 5.76516 20.4853 3.51472C18.2348 1.26428 15.1826 0 12 0C8.8174 0 5.76516 1.26428 3.51472 3.51472C1.26428 5.76516 0 8.8174 0 12C0 15.1826 1.26428 18.2348 3.51472 20.4853C5.76516 22.7357 8.8174 24 12 24ZM8.77969 5.77969C9.07031 5.48906 9.07031 5.01094 8.77969 4.72031C8.48906 4.42969 8.01094 4.42969 7.72031 4.72031L6.22031 6.22031C5.92969 6.51094 5.92969 6.98906 6.22031 7.27969C6.51094 7.57031 6.98906 7.57031 7.27969 7.27969L8.77969 5.77969Z" fill="#1E1918"/>
</g>
<defs>
<clipPath id="clip0_3_1713">
<rect width="24" height="24" fill="white"/>
</clipPath>
</defs>
</svg>
