<svg width="24" height="24" viewBox="0 0 24 24" fill="none" xmlns="http://www.w3.org/2000/svg">
<g clip-path="url(#clip0_3_1700)">
<path d="M22.0568 5.22998L14.6828 1.71698C13.0596 0.747414 11.0393 0.730211 9.39982 1.67198L1.94285 5.22998C1.91486 5.24399 1.88585 5.25899 1.85885 5.27498C0.0892236 6.28682 -0.52512 8.54165 0.486724 10.3113C0.829708 10.9112 1.33422 11.4027 1.94285 11.73L3.99986 12.71V17.61C4.00108 19.8011 5.42679 21.7368 7.51886 22.388C8.97476 22.8092 10.4844 23.0154 11.9999 23C13.5152 23.017 15.0248 22.8125 16.4809 22.393C18.573 21.7419 19.9987 19.8061 19.9999 17.615V12.708L21.9999 11.752V20C21.9999 20.5522 22.4476 20.9999 22.9999 20.9999C23.5522 20.9999 23.9999 20.5522 23.9999 20V7.99996C24.0065 6.8257 23.0793 5.74091 22.0568 5.22998ZM17.9998 17.615C18.0003 18.9256 17.15 20.0849 15.8998 20.478C14.6321 20.8402 13.3183 21.0161 11.9998 21C10.6814 21.0161 9.36761 20.8402 8.09983 20.478C6.84963 20.0848 5.99932 18.9256 5.99983 17.615V13.663L9.31685 15.243C10.1353 15.729 11.07 15.9844 12.0219 15.982C12.9279 15.9884 13.8186 15.7486 14.5989 15.288L17.9998 13.663V17.615ZM21.1998 9.92498L13.6578 13.525C12.6063 14.1373 11.3028 14.12 10.2678 13.48L2.88883 9.96998C2.06632 9.52645 1.7591 8.50012 2.20263 7.67765C2.35263 7.39949 2.57754 7.16891 2.85185 7.01198L10.3468 3.43199C11.3988 2.82102 12.7015 2.83832 13.7368 3.47699L21.1108 6.98999C21.6531 7.29112 21.9924 7.85976 21.9998 8.48001C22.0008 9.06754 21.6983 9.61391 21.1998 9.92498Z" fill="#C4FF3E"/>
</g>
<defs>
<clipPath id="clip0_3_1700">
<rect width="24" height="24" fill="white"/>
</clipPath>
</defs>
</svg>
