<svg width="11" height="9" viewBox="0 0 11 9" fill="none" xmlns="http://www.w3.org/2000/svg">
<path d="M0 0.5625C0 0.250781 0.250781 0 0.5625 0H9.9375C10.2492 0 10.5 0.250781 10.5 0.5625C10.5 0.874219 10.2492 1.125 9.9375 1.125H0.5625C0.250781 1.125 0 0.874219 0 0.5625ZM0 4.3125C0 4.00078 0.250781 3.75 0.5625 3.75H9.9375C10.2492 3.75 10.5 4.00078 10.5 4.3125C10.5 4.62422 10.2492 4.875 9.9375 4.875H0.5625C0.250781 4.875 0 4.62422 0 4.3125ZM10.5 8.0625C10.5 8.37422 10.2492 8.625 9.9375 8.625H0.5625C0.250781 8.625 0 8.37422 0 8.0625C0 7.75078 0.250781 7.5 0.5625 7.5H9.9375C10.2492 7.5 10.5 7.75078 10.5 8.0625Z" fill="#1E1918"/>
</svg>
