<svg width="24" height="24" viewBox="0 0 24 24" fill="none" xmlns="http://www.w3.org/2000/svg">
<g clip-path="url(#clip0_2001_189)">
<path d="M23.018 8.78476C22.7256 8.5184 22.3836 8.31228 22.0116 8.17817C21.6395 8.04406 21.2446 7.98459 20.8496 8.00316C20.4545 8.02174 20.0669 8.11799 19.7091 8.28642C19.3512 8.45485 19.0301 8.69215 18.764 8.98476L15.547 12.5198C15.2674 12.0563 14.8729 11.6728 14.4016 11.4065C13.9303 11.1402 13.3983 11.0001 12.857 10.9998H3C2.20435 10.9998 1.44129 11.3158 0.87868 11.8784C0.31607 12.441 0 13.2041 0 13.9998L0 20.9998C0 21.7954 0.31607 22.5585 0.87868 23.1211C1.44129 23.6837 2.20435 23.9998 3 23.9998H13.448L23.235 13.0148C23.7605 12.4219 24.0321 11.6465 23.9916 10.8554C23.951 10.0642 23.6014 9.32069 23.018 8.78476ZM21.742 11.6848L12.552 21.9998H3C2.73478 21.9998 2.48043 21.8944 2.29289 21.7069C2.10536 21.5193 2 21.265 2 20.9998V13.9998C2 13.7345 2.10536 13.4802 2.29289 13.2927C2.48043 13.1051 2.73478 12.9998 3 12.9998H12.857C13.1466 12.9985 13.4258 13.1073 13.6382 13.3042C13.8506 13.501 13.9803 13.7712 14.001 14.0601C14.0217 14.3489 13.9319 14.6348 13.7498 14.86C13.5677 15.0851 13.3068 15.2327 13.02 15.2728L7.858 16.0098L8.142 17.9898L13.303 17.2518C13.8691 17.1687 14.4019 16.9334 14.8446 16.5709C15.2872 16.2084 15.623 15.7324 15.816 15.1938L20.243 10.3298C20.332 10.2312 20.4397 10.1513 20.5599 10.0948C20.6801 10.0384 20.8103 10.0064 20.943 10.0008C21.2105 9.99006 21.4717 10.084 21.671 10.2628C21.8667 10.443 21.9839 10.693 21.9972 10.9587C22.0104 11.2245 21.9188 11.4849 21.742 11.6838V11.6848ZM10.423 9.14976L11 9.55876L11.577 9.14976C12.03 8.82976 16 5.94176 16 3.19976C16.0246 2.37812 15.7227 1.5802 15.1605 0.980522C14.5983 0.380841 13.8215 0.0282098 13 -0.000242376C12.267 -0.00960921 11.5559 0.248903 11 0.726758C10.4441 0.248903 9.73296 -0.00960921 9 -0.000242376C8.17849 0.0282098 7.40168 0.380841 6.83948 0.980522C6.27728 1.5802 5.97545 2.37812 6 3.19976C6 5.94176 9.97 8.82976 10.423 9.14976ZM9 1.99976C9.13361 1.99092 9.26756 2.01073 9.3929 2.05785C9.51823 2.10498 9.63205 2.17834 9.72673 2.27303C9.82141 2.36771 9.89477 2.48153 9.9419 2.60686C9.98903 2.73219 10.0088 2.86615 10 2.99976H12C11.9912 2.86615 12.011 2.73219 12.0581 2.60686C12.1052 2.48153 12.1786 2.36771 12.2733 2.27303C12.368 2.17834 12.4818 2.10498 12.6071 2.05785C12.7324 2.01073 12.8664 1.99092 13 1.99976C13.2906 2.02892 13.5582 2.17098 13.7453 2.39538C13.9323 2.61979 14.0237 2.90861 14 3.19976C14 4.27376 12.4 5.96776 11 7.08076C9.76 6.08076 8 4.35376 8 3.19976C7.97627 2.90861 8.06775 2.61979 8.25475 2.39538C8.44175 2.17098 8.70935 2.02892 9 1.99976Z" fill="#374957"/>
</g>
<defs>
<clipPath id="clip0_2001_189">
<rect width="24" height="24" fill="white"/>
</clipPath>
</defs>
</svg>
