<svg width="24" height="24" viewBox="0 0 24 24" fill="none" xmlns="http://www.w3.org/2000/svg">
<path d="M23 2.6665C22.4458 2.6665 22 3.11234 22 3.6665V3.904L2 9.35817V8.99984C2 8.44567 1.55417 7.99984 1 7.99984C0.445833 7.99984 0 8.44567 0 8.99984V9.904V10.6665V13.3332V14.0957V14.9998C0 15.554 0.445833 15.9998 1 15.9998C1.55417 15.9998 2 15.554 2 14.9998V14.6415L6.9 15.979C6.75 16.404 6.66667 16.8582 6.66667 17.3332C6.66667 19.5415 8.45833 21.3332 10.6667 21.3332C12.6208 21.3332 14.25 19.9332 14.5958 18.079L22 20.0957V20.3332C22 20.8873 22.4458 21.3332 23 21.3332C23.5542 21.3332 24 20.8873 24 20.3332V19.3332V4.6665V3.6665C24 3.11234 23.5542 2.6665 23 2.6665ZM22 18.0248L2 12.5707V11.429L22 5.97484V18.0248ZM8.66667 17.3332C8.66667 17.0373 8.72917 16.7582 8.84583 16.5082L12.6583 17.5457C12.55 18.5498 11.7 19.329 10.6708 19.329C9.56667 19.329 8.67083 18.4332 8.67083 17.329L8.66667 17.3332Z" fill="#1E1918"/>
</svg>
