<svg width="198" height="133" viewBox="0 0 198 133" fill="none" xmlns="http://www.w3.org/2000/svg">
<path opacity="0.1" d="M21.25 133L50 83C36.25 83 24.4792 78.1042 14.6875 68.3125C4.89583 58.5208 0 46.75 0 33C0 19.25 4.89583 7.47917 14.6875 -2.3125C24.4792 -12.1042 36.25 -17 50 -17C63.75 -17 75.5208 -12.1042 85.3125 -2.3125C95.1042 7.47917 100 19.25 100 33C100 37.7917 99.4271 42.2188 98.2812 46.2812C97.1354 50.3438 95.4167 54.25 93.125 58L50 133H21.25ZM133.75 133L162.5 83C148.75 83 136.979 78.1042 127.188 68.3125C117.396 58.5208 112.5 46.75 112.5 33C112.5 19.25 117.396 7.47917 127.188 -2.3125C136.979 -12.1042 148.75 -17 162.5 -17C176.25 -17 188.021 -12.1042 197.812 -2.3125C207.604 7.47917 212.5 19.25 212.5 33C212.5 37.7917 211.927 42.2188 210.781 46.2812C209.635 50.3438 207.917 54.25 205.625 58L162.5 133H133.75Z" fill="#393A08"/>
</svg>
