<svg width="170" height="145" viewBox="0 0 170 145" fill="none" xmlns="http://www.w3.org/2000/svg">
<path opacity="0.1" d="M21.25 145L50 95C36.25 95 24.4792 90.1042 14.6875 80.3125C4.89583 70.5208 0 58.75 0 45C0 31.25 4.89583 19.4792 14.6875 9.6875C24.4792 -0.104167 36.25 -5 50 -5C63.75 -5 75.5208 -0.104167 85.3125 9.6875C95.1042 19.4792 100 31.25 100 45C100 49.7917 99.4271 54.2188 98.2812 58.2812C97.1354 62.3438 95.4167 66.25 93.125 70L50 145H21.25ZM133.75 145L162.5 95C148.75 95 136.979 90.1042 127.188 80.3125C117.396 70.5208 112.5 58.75 112.5 45C112.5 31.25 117.396 19.4792 127.188 9.6875C136.979 -0.104167 148.75 -5 162.5 -5C176.25 -5 188.021 -0.104167 197.812 9.6875C207.604 19.4792 212.5 31.25 212.5 45C212.5 49.7917 211.927 54.2188 210.781 58.2812C209.635 62.3438 207.917 66.25 205.625 70L162.5 145H133.75Z" fill="#393A08"/>
</svg>
