<svg width="24" height="24" viewBox="0 0 24 24" fill="none" xmlns="http://www.w3.org/2000/svg">
<g clip-path="url(#clip0_3_1709)">
<path d="M9.27656 11.9015C9.88125 12.2015 10.4344 12.5953 10.9172 13.0828C11.4 13.5703 11.7984 14.1234 12.0984 14.7234C17.0578 13.3172 19.4438 10.9969 20.6063 8.81717C21.7781 6.62342 21.8859 4.24217 21.6375 2.36248C19.7578 2.11404 17.3766 2.22185 15.1828 3.39373C13.0031 4.55623 10.6828 6.94685 9.27656 11.9015ZM18 14.6297V18.4828C18 19.6734 17.3719 20.7797 16.3453 21.3844L12.1969 23.8453C11.85 24.0515 11.4188 24.0562 11.0672 23.8547C10.7156 23.6531 10.5 23.2828 10.5 22.875V17.4984C10.5 16.439 10.0781 15.4219 9.32812 14.6719C8.57812 13.9219 7.56094 13.5 6.50156 13.5H1.125C0.721875 13.5 0.346875 13.2844 0.145312 12.9328C-0.0562503 12.5812 -0.0515628 12.15 0.154687 11.8031L2.61562 7.65467C3.225 6.6281 4.32656 5.99998 5.51719 5.99998H9.37031C13.2047 -0.178146 19.1625 -0.398459 22.6828 0.248416C23.2266 0.346854 23.6531 0.773416 23.7516 1.31717C24.3984 4.83748 24.1781 10.7953 18 14.6297ZM1.32656 23.9953C0.576562 24.014 -0.0140628 23.4234 0.00468719 22.6734C0.0468747 20.9062 0.360937 17.7984 1.96875 16.1953C3.58125 14.5828 6.19219 14.5828 7.80469 16.1953C9.41719 17.8078 9.41719 20.4187 7.80469 22.0312C6.20156 23.639 3.09375 23.9531 1.32656 23.9953ZM3.67969 20.9719C4.27969 20.939 5.14219 20.7984 5.61562 20.3297C6.15 19.7953 6.15 18.9234 5.61562 18.389C5.08125 17.8547 4.20937 17.8547 3.675 18.389C3.20156 18.8625 3.06562 19.725 3.03281 20.325C3.00937 20.7 3.30937 20.9953 3.68437 20.9765L3.67969 20.9719ZM15.375 6.74998C15.375 6.2527 15.5725 5.77578 15.9242 5.42415C16.2758 5.07252 16.7527 4.87498 17.25 4.87498C17.7473 4.87498 18.2242 5.07252 18.5758 5.42415C18.9275 5.77578 19.125 6.2527 19.125 6.74998C19.125 7.24726 18.9275 7.72417 18.5758 8.0758C18.2242 8.42743 17.7473 8.62498 17.25 8.62498C16.7527 8.62498 16.2758 8.42743 15.9242 8.0758C15.5725 7.72417 15.375 7.24726 15.375 6.74998Z" fill="#1E1918"/>
</g>
<defs>
<clipPath id="clip0_3_1709">
<rect width="24" height="24" fill="white"/>
</clipPath>
</defs>
</svg>
