<svg width="24" height="24" viewBox="0 0 24 24" fill="none" xmlns="http://www.w3.org/2000/svg">
<path d="M18 7.00032C18 7.1981 17.9414 7.39144 17.8315 7.55589C17.7216 7.72034 17.5654 7.84852 17.3827 7.9242C17.2 7.99989 16.9989 8.01969 16.8049 7.98111C16.6109 7.94252 16.4327 7.84728 16.2929 7.70743C16.153 7.56758 16.0578 7.3894 16.0192 7.19541C15.9806 7.00143 16.0004 6.80037 16.0761 6.61764C16.1518 6.43491 16.28 6.27874 16.4444 6.16885C16.6089 6.05897 16.8022 6.00032 17 6.00032C17.2652 6.00032 17.5196 6.10568 17.7071 6.29322C17.8946 6.48075 18 6.73511 18 7.00032ZM14 9.00032C13.8022 9.00032 13.6089 9.05897 13.4444 9.16885C13.28 9.27874 13.1518 9.43491 13.0761 9.61764C13.0004 9.80037 12.9806 10.0014 13.0192 10.1954C13.0578 10.3894 13.153 10.5676 13.2929 10.7074C13.4327 10.8473 13.6109 10.9425 13.8049 10.9811C13.9989 11.0197 14.2 10.9999 14.3827 10.9242C14.5654 10.8485 14.7216 10.7203 14.8315 10.5559C14.9414 10.3914 15 10.1981 15 10.0003C15 9.73511 14.8946 9.48075 14.7071 9.29322C14.5196 9.10568 14.2652 9.00032 14 9.00032ZM11 12.0003C10.8022 12.0003 10.6089 12.059 10.4444 12.1689C10.28 12.2787 10.1518 12.4349 10.0761 12.6176C10.0004 12.8004 9.98063 13.0014 10.0192 13.1954C10.0578 13.3894 10.153 13.5676 10.2929 13.7074C10.4327 13.8473 10.6109 13.9425 10.8049 13.9811C10.9989 14.0197 11.2 13.9999 11.3827 13.9242C11.5654 13.8485 11.7216 13.7203 11.8315 13.5559C11.9414 13.3914 12 13.1981 12 13.0003C12 12.7351 11.8946 12.4808 11.7071 12.2932C11.5196 12.1057 11.2652 12.0003 11 12.0003ZM23.352 0.648323C23.65 0.943616 23.8569 1.31834 23.9481 1.72788C24.0392 2.13742 24.0107 2.56451 23.866 2.95832L23.791 3.16932C22.289 7.33732 20.848 11.3003 18 14.8203V15.0003C17.9956 16.7072 17.5961 18.39 16.8327 19.9167C16.0694 21.4434 14.9629 22.7727 13.6 23.8003L13.332 24.0003H9V20.4143L7 18.4143L4.707 20.7073L3.293 19.2933L5.586 17.0003L3.586 15.0003H0V10.4403L0.2 10.1743C1.23794 8.83856 2.57487 7.76504 4.10328 7.04009C5.63168 6.31514 7.30889 5.959 9 6.00032H9.18C12.7 3.15332 16.66 1.71232 20.826 0.211323L21.042 0.134323C21.4358 -0.0103834 21.8629 -0.038869 22.2724 0.0522577C22.682 0.143384 23.0567 0.350284 23.352 0.648323ZM2 13.0003H3.419C4.39674 11.3137 5.52857 9.72122 6.8 8.24332C4.9212 8.63198 3.22934 9.64534 2 11.1183V13.0003ZM15.7 17.2543C14.2375 18.5035 12.6643 19.6171 11 20.5813V22.0003H12.657C14.1507 20.7826 15.2167 19.1199 15.7 17.2543ZM21.937 2.06332C21.9104 2.03368 21.8751 2.01312 21.8362 2.00451C21.7973 1.9959 21.7567 1.99968 21.72 2.01532L21.505 2.09332C16.661 3.83832 12.478 5.34632 8.876 8.94732C7.48687 10.4347 6.27047 12.0745 5.25 13.8353L10.165 18.7513C11.9255 17.7299 13.5652 16.5133 15.053 15.1243C18.653 11.5243 20.163 7.33732 21.909 2.49132L21.985 2.28032C22.0005 2.24364 22.0042 2.20305 21.9956 2.16417C21.987 2.12529 21.9665 2.09005 21.937 2.06332Z" fill="#374957"/>
</svg>
