<svg width="24" height="24" viewBox="0 0 24 24" fill="none" xmlns="http://www.w3.org/2000/svg">
<path d="M12 9.75C12.9946 9.75 13.9484 9.35491 14.6517 8.65165C15.3549 7.94839 15.75 6.99456 15.75 6C15.75 5.00544 15.3549 4.05161 14.6517 3.34835C13.9484 2.64509 12.9946 2.25 12 2.25C11.0054 2.25 10.0516 2.64509 9.34835 3.34835C8.64509 4.05161 8.25 5.00544 8.25 6C8.25 6.99456 8.64509 7.94839 9.34835 8.65165C10.0516 9.35491 11.0054 9.75 12 9.75ZM18 6C18 7.5913 17.3679 9.11742 16.2426 10.2426C15.1174 11.3679 13.5913 12 12 12C10.4087 12 8.88258 11.3679 7.75736 10.2426C6.63214 9.11742 6 7.5913 6 6C6 4.4087 6.63214 2.88258 7.75736 1.75736C8.88258 0.632141 10.4087 0 12 0C13.5913 0 15.1174 0.632141 16.2426 1.75736C17.3679 2.88258 18 4.4087 18 6ZM3.76406 21.75H20.2359C20.0906 19.5328 18.6562 17.6578 16.6734 16.8844L14.3438 19.8C13.1438 21.3 10.8609 21.3 9.65625 19.8L7.32656 16.8844C5.34375 17.6578 3.90937 19.5328 3.76406 21.75ZM7.74844 14.4188C8.01094 14.3625 8.27812 14.4703 8.44687 14.6813L11.4188 18.3937C11.7188 18.7687 12.2906 18.7687 12.5906 18.3937L15.5625 14.6813C15.7312 14.4703 15.9984 14.3672 16.2609 14.4188C19.8234 15.1688 22.5 18.3328 22.5 22.125V22.5C22.5 23.3297 21.8297 24 21 24H3C2.17031 24 1.5 23.3297 1.5 22.5V22.125C1.5 18.3328 4.17656 15.1688 7.74844 14.4188Z" fill="#1E1918"/>
</svg>
